<?xml version="1.0" encoding="utf-8"?>
<!-- Generator: Adobe Illustrator 27.10.0, SVG Export Plug-In . SVG Version: 6.00 Build 0)  -->
<svg version="1.1" id="圖層_1" xmlns="http://www.w3.org/2000/svg" xmlns:xlink="http://www.w3.org/1999/xlink" x="0px" y="0px"
	 viewBox="0 0 107.75 96.03" style="enable-background:new 0 0 107.75 96.03;" xml:space="preserve">
<style type="text/css">
	.st0{fill:#FFFFFF;}
	.st1{fill:#E3752A;}
</style>
<g>
	<g>
		<g>
			<path class="st0" d="M23.5,0.63c1.81,0.08,3.54,0.34,5.18,0.78c-0.02,0.14-0.05,0.28,0.11,0.36C28.63,1.86,28.65,2,28.65,2.14
				c0.58,0.59,1.27-0.08,2.05,0.15c0.08-0.12,0.32-0.18,0.28-0.36l0.27,0c-0.05,0.18,0.17,0.25,0.26,0.37
				c1-0.17,2.66,0.56,2.87-0.81c0.87-0.41,1.83-0.64,2.87-0.69c1.41-0.26,2.91,1.42,3.95-0.19c2.65-0.63,5.56,0.02,8.2-0.61
				c4.33,0.62,8.64-0.65,11.53,2.37c1.62,0.2,2.33-1.01,3.7-0.61c1.26-1.69,3.74-0.31,5.47-0.91c3.18,0.26,6.18,0.28,9.27,0.35
				c2.95-0.36,5.89,0.94,8.85,0.58c1.09-0.07,1.71,0.91,2.85,0.4c1.32-0.11,2.3-0.64,3.69-0.2c0.71-0.39,1.72,0.3,2.6-0.09
				c1.59,1.08,3.79,0.36,5.28,1.63c2.72,0.33,2.17,3.11,3.62,4.51c-0.01,1.29,2.07,2.81,0.22,3.75c-0.16,0.75,0.73,1.14,0.78,1.82
				c0.13,2.21-0.09,4.23,0.04,6.28c-0.62,0.61-0.25,1.32-0.17,2.05c-0.24,0.78-0.07,1.73-0.58,2.41c0.31,0.91-1.69,1.08-0.85,2.04
				c0.69,0.77,1.92,1.55,1.99,2.55c-0.25,3.58-0.18,7.4-0.02,10.97c0.44,1.96-1.55,3.3-0.49,5.18c0.33,1.05-0.16,1.93,0.37,2.9
				c0.01,1.37-0.48,2.55-1.28,3.61c-0.88,1.61,0.43,3.04,0.2,4.7c0.42,0.39,0.13,1.03,0.38,1.45c-0.33,1.18,1.18,2.18,0.24,3.15
				c0.38,1.51-0.98,2.72-0.2,4.09c-0.1,1.28-0.82,2.81,0.34,3.98c0.74,1.94-0.97,3.69-0.22,5.78c-0.53,1.65,0.11,3.7-0.61,5.42
				c0,2.62-0.85,4.67-0.64,7.37c-0.97,0.79,0.31,2.87-1.67,2.87c0.03,0.48,0.48,0.97,0.1,1.45c-0.63,0.48-1.68,0.59-1.92,1.43
				c-1.22,0.83-2.83,0.92-4.12,1.56c-1.46,0.06-2.91,0.24-4.37,0.66c-1.41-0.06-2.73-0.36-4.23-0.6c-5.45,1.1-6.43,0.45-7.18-0.06
				c-0.07-0.58-0.82,0.05-1.1-0.09c-0.54-0.3-0.09-0.23-0.92-0.33c-1.16-0.16-2.81,0.14-2.89,0.38c-0.2,0.48-0.58,0.16-0.83,0.3
				c-0.45,0.74-1.03,0.51-2.21,0.5c-0.81-0.6-2.72,0.44-2.97-0.77c-3.21,0-4.97,0.36-8.11,0.54c-0.16,0.38-0.84,0.35-1.31,0.62
				c-2.28-0.17-4.45-0.38-6.54-0.55c-2.6,0.27-5.45-0.11-8.03-0.2c-1.44,0.43-3.35,0.35-4.77,0.41c-1.67-0.83-3.51,0.99-5.18,0.16
				c-2.77-0.21-5.89,0.29-8.59-0.11c-1.15-0.05-2.06-0.97-3.26-0.52c-1.15,0.13-1.96,0.19-3.18,0.19c-1.41,0.09-0.97-0.37-1.11-0.47
				c-0.32-0.01-0.91,0.11-1.6,0.08c-0.65-0.03-1.73-0.41-2.36-0.44c-0.8-0.04-0.98,0.13-1.13,0.12c-0.14,0.73-1.07,0.41-1.32,0.35
				c-1.41-0.13-2.79-0.49-4.14-0.6c-0.63-0.29-0.71-0.06-1.63-0.49c-2.81-0.1-4.09-1.28-5.3-1.28c-1.02,0.09-2.05-1.11-2.56-1.78
				c-1.02-1.97,0.16-3.87-1.83-5.51c0-1.37-0.77-2.78-0.08-4.1c-0.24-0.12-0.09-0.4-0.13-0.6c0.49-0.4,0.76-0.88,0.84-1.44
				c-0.51-0.63-0.06-1.61-0.37-2.3l2.19-0.21c0.2-0.68,0.22-1.6,0.03-2.29c-0.69,0.23-1.27-0.4-1.91-0.62
				c-0.76-0.53-0.54-1.58-0.38-2.3c0.57-2.68-0.16-5.77,0.81-8.31C0.75,62.63,0.2,62.37,0,61.96c0.02-0.74,1.21-1.05,0.98-1.91
				c-0.74-0.53-1.15-1.2-1.34-1.95c0.88-1.08,0.34-2.85,0.34-4.22c-0.33-0.98,0.06-2.51-0.63-3.5c-0.73-1.8,1.55-3.2-0.07-4.59
				c0.37-1.98,0.01-3.8,0.36-5.78C0.02,39.69,0,39.2,0.2,38.8c-0.98-0.84,0.28-2.01-0.51-2.9c-0.8-1.8,2.3-3.13,0.08-4.47
				c-0.02-3.17,0.46-6.42,0.24-9.52c0.9-1.15,0.95-2.63,2.46-3.44c-0.25-0.77-0.89-1.23-1.42-1.98c-0.3-0.03-0.63,0.05-0.81-0.26
				c0.22-1.68-0.36-3.22,0.08-4.82c-0.69-1.07,0.82-1.78,0.3-2.77c1.57-1.29-0.67-2,1.27-3.14C1.77,4.59,2.58,3.9,3.27,3.37
				C4.8,3.38,5.2,2.28,6.58,1.76c0.54-0.07,1.78-0.49,3.14-0.25c2.01-0.02,4.14,0.46,6-0.28c1.67-0.73,4.01-0.23,5.75-0.77
				C22.25,0.42,22.89,0.3,23.5,0.63z"/>
			<path class="st1" d="M107.57,47.98c-0.54-0.97-0.05-1.85-0.37-2.9c-1.06-1.88,0.93-3.22,0.49-5.18
				c-0.16-3.58-0.23-7.4,0.02-10.97c-0.07-1.01-1.29-1.79-1.99-2.55c-0.85-0.96,1.16-1.13,0.85-2.04c0.51-0.68,0.34-1.63,0.58-2.41
				c-0.08-0.72-0.45-1.43,0.17-2.05c-0.13-2.05,0.09-4.06-0.04-6.28c-0.05-0.68-0.95-1.07-0.78-1.82c1.85-0.94-0.23-2.46-0.22-3.75
				c-1.46-1.4-0.91-4.17-3.62-4.51c-1.5-1.27-3.69-0.55-5.28-1.63c-0.88,0.39-1.89-0.3-2.6,0.09c-1.39-0.44-2.36,0.09-3.69,0.2
				c-1.14,0.51-1.77-0.47-2.85-0.4c-2.97,0.36-5.9-0.94-8.85-0.58c-3.08-0.07-6.09-0.09-9.27-0.35c-1.72,0.6-4.21-0.79-5.47,0.91
				c-1.38-0.4-2.08,0.8-3.7,0.61C58.04-0.65,53.73,0.62,49.4,0c-2.64,0.63-5.55-0.02-8.2,0.61c-1.03,1.62-2.54-0.07-3.95,0.19
				c-1.04,0.05-2,0.28-2.87,0.69c-0.22,1.37-1.87,0.64-2.87,0.81c-0.09-0.12-0.31-0.19-0.26-0.37l-0.27,0
				c0.03,0.18-0.2,0.24-0.28,0.36c-0.78-0.23-1.47,0.44-2.05-0.15c0-0.14-0.02-0.28,0.14-0.36c-0.16-0.09-0.12-0.22-0.11-0.36
				c-1.65-0.44-3.37-0.7-5.18-0.78c-0.61-0.33-1.25-0.21-2.04-0.17c-1.74,0.54-4.07,0.04-5.75,0.77c-1.85,0.74-3.99,0.26-6,0.28
				c-1.36-0.24-2.6,0.17-3.14,0.25C5.2,2.28,4.8,3.38,3.27,3.37c-0.69,0.53-1.5,1.23-1.4,2.15c-1.93,1.14,0.3,1.85-1.27,3.14
				c0.52,0.99-0.98,1.7-0.3,2.77c-0.44,1.6,0.14,3.14-0.08,4.82c0.18,0.31,0.51,0.23,0.81,0.26c0.53,0.75,1.17,1.21,1.42,1.98
				c-1.52,0.81-1.56,2.29-2.46,3.44c0.22,3.1-0.26,6.35-0.24,9.52c2.22,1.33-0.88,2.66-0.08,4.47c0.79,0.89-0.47,2.06,0.51,2.9
				c-0.2,0.4-0.17,0.88-0.56,1.2c-0.35,1.98,0.01,3.8-0.36,5.78c1.62,1.39-0.66,2.79,0.07,4.59c0.69,0.99,0.3,2.52,0.63,3.5
				c0,1.37,0.55,3.15-0.34,4.22c0.2,0.75,0.6,1.42,1.34,1.95c0.24,0.86-0.95,1.18-0.98,1.91c0.2,0.41,0.75,0.67,0.51,1.21
				c-0.97,2.54-0.25,5.63-0.81,8.31c-0.16,0.72-0.37,1.77,0.38,2.3c0.64,0.23,1.22,0.86,1.91,0.62c0.19,0.69,0.17,1.61-0.03,2.29
				l-2.19,0.21c0.31,0.69-0.13,1.67,0.37,2.3c-0.08,0.56-0.34,1.04-0.84,1.44c0.04,0.2-0.12,0.48,0.13,0.6
				c-0.7,1.32,0.08,2.73,0.08,4.1c2,1.64,0.81,3.54,1.83,5.51c0.51,0.68,1.54,1.87,2.56,1.78c1.2-0.01,2.49,1.17,5.3,1.28
				c0.93,0.43,1.01,0.2,1.63,0.49c1.35,0.11,2.73,0.47,4.14,0.6c0.24,0.06,1.18,0.38,1.32-0.35c0.15,0.01,0.34-0.16,1.13-0.12
				c0.63,0.03,1.71,0.41,2.36,0.44c0.69,0.03,1.28-0.08,1.6-0.08c0.04,0.03,0.03,0.1,0.03,0.17c0.17-0.34,0.3-0.67,0.3-1.03
				l-0.07-0.46l-0.06-0.18l0.12-0.15c0.56-0.76,0.8-1.71,0.8-2.98l-0.01-0.73l-0.01-0.17l0.13-0.12c0.31-0.33,0.38-0.76,0.38-1.29
				l-0.02-0.83c0-0.54,0.08-1.16,0.52-1.7c0-0.09,0.14-1.7,0.14-1.7l0.35-0.05c0.13-0.02,0.13-0.02,0.2-0.21
				c0.04-0.14,0.13-0.4,0.4-0.6c0-0.13-0.02-0.35-0.02-0.35l0.08-1.05l0.08-0.94c0-0.28-0.04-0.53-0.12-0.79l-0.01-0.09l0.01-0.03
				c0,0,0.13-0.69,0.13-0.68c0.06-0.37,0.1-0.76,0.41-1.22l0.06-0.13c0,0,0.42-0.14,0.43-0.14l-0.06-0.26l0.03-0.52
				c0-0.19-0.02-0.24-0.24-0.31l-0.27-0.09c0,0-0.02-0.28-0.02-0.32l-0.01-0.4c0-0.57,0.07-1.22,0.51-1.8
				c0-0.13,0.01-0.75,0.01-0.79c0-0.01-0.02-0.47-0.02-0.47c0-0.62,0.14-1.39,1-1.94c0-0.17,0-2.51,0-2.51l0.06-0.1
				c0.24-0.3,0.32-0.63,0.32-1.04c0-0.34-0.06-0.68-0.13-1.05c-0.07-0.38-0.14-0.78-0.14-1.18c0-0.54,0.16-1,0.45-1.42
				c-0.25-0.63-0.53-1.12-1.19-1.31c-1.1,0.04-2.03-0.2-2.93-0.43c-0.74-0.19-1.43-0.37-2.22-0.4l-0.08,0.01l-0.05-0.03
				c0,0-0.66-0.38-0.69-0.39c-0.31-0.23-0.55-0.4-0.94-0.33l-0.27,0.04l-0.16-0.2c-0.32-0.37-0.76-0.58-1.21-0.78
				c-0.54-0.24-1.19-0.56-1.49-1.26c-0.03-0.01-0.05-0.02-0.05-0.02l0,0c-0.2-0.05-0.65-0.18-0.68-0.63l-0.01-0.03l0.01-0.15
				c0-0.15-0.1-0.25-0.36-0.47c-0.2-0.17-0.45-0.38-0.57-0.64c-0.42-0.65-0.53-1.35-0.63-2.04c0,0-0.03-0.16-0.05-0.23
				c-0.34-0.38-0.41-0.79-0.41-1.12l0.02-0.47c0-0.33-0.06-0.53-0.39-0.7l-0.3-0.16l0.1-0.32l0.03-0.13c0-0.13-0.1-0.28-0.24-0.49
				c0,0-0.3-0.57-0.3-0.59l-0.05-0.61l0.06-1.61c0-0.71-0.12-1.16-0.44-1.54c-0.53-0.67-0.59-1.45-0.59-2.13l0.02-1.24
				c0-0.34-0.03-0.62-0.08-0.87c-0.53-0.33-1-0.74-1.03-1.53c0,0,0-0.06,0-0.1c-0.57-0.26-0.85-0.74-0.95-0.91l-0.02-0.04
				l-0.02-0.08L9,39.24c0-0.17-0.2-0.4-0.38-0.6C8.38,38.35,8.05,38,8.05,37.57c0-0.26,0.14-0.52,0.4-0.79
				c0.05-0.04,0.07-0.1,0.11-0.27c0.05-0.16,0.14-0.48,0.47-0.72c0.04-1.13,0.26-2.4,1.34-3.47l0.1-0.1l0.07-0.01l0.07-0.01
				c0.39-0.07,0.49-0.14,0.5-0.16c0-0.05,0-0.1,0-0.09V31.8c0-0.44,0.3-0.62,0.55-0.7l0.13-0.04l0.12,0.03
				c0.21,0.05,0.21,0.05,0.36-0.17c0.14-0.2,0.41-0.58,0.99-0.58c0.73-0.52,1.08-0.96,1.08-1.43v-0.13l-0.02-0.17l0.11-0.13
				c0.35-0.43,1.01-0.59,1.65-0.71l0.12,0l0.03,0.01c0,0,0.51,0.14,0.51,0.14c0.45,0.11,1.19,0.31,1.36,0.93
				c0.56,0.36,0.85,0.87,0.85,1.57l-0.08,0.87l-0.08,0.73c0,0.21,0.04,0.37,0.09,0.5l0.03,0.02v0.03c0,0,0,0.08,0.02,0.12
				c0,0,0,0.33,0,0.44c0,0.02,0,0.03,0,0.03l0.02,0.28c0,0.29-0.14,0.52-0.39,0.73c0,0.1-0.03,0.52-0.03,0.52l0.06,1.95
				c0,0.67-0.06,1.53-0.53,2.32c0,0.08,0.14,10.85,0.14,10.95c0.14,0.21,0.25,0.43,0.32,0.64c0.11,0.27,0.18,0.47,0.43,0.69
				c0.19,0.19,0.26,0.41,0.26,0.67l-0.09,0.54l-0.07,0.31c0,0.05,0,0.11,0.24,0.21l0.44,0.18c0,0-0.17,0.28-0.2,0.33
				c0.03,0.03,0.07,0.07,0.07,0.07c0.15,0.11,0.36,0.27,0.42,0.54c0,0,0.07,0.35,0.07,0.36c0.09,0.57,0.17,0.91,0.66,1.09l0.19,0.07
				c0,0,0.05,0.13,0.06,0.15c0.03,0.04,0.21,0.09,0.29,0.12c0.2,0.06,0.63,0.19,0.77,0.55c0.08,0.09,0.27,0.13,0.44,0.18
				c0.31,0.07,0.8,0.22,0.92,0.7c0.1,0.02,0.28,0.09,0.28,0.09c0.27,0.04,0.55,0.13,0.78,0.35c0.55,0.14,1.22,0.02,1.78-0.33
				l0.11-0.06l0.06,0h0.06c0.3-0.01,0.53-0.2,0.84-0.45c0,0,0.24-0.17,0.34-0.26c0-0.19,0-9.06,0-9.06l0.1-0.12
				c0.33-0.41,0.9-1.21,0.9-2.02c0-0.34-0.11-0.64-0.31-0.91l-0.02-0.02l-0.03-0.04l-0.05-0.34c0-0.36,0.24-0.63,0.4-0.81
				c0,0,0-0.01,0-0.01c0.02-0.07,0.06-0.47,0.06-0.47c0-0.5-0.16-0.96-0.33-1.46c-0.18-0.52-0.32-1-0.35-1.54
				C28.06,39.79,28,39.69,28,39.69c-0.14-0.2-0.32-0.48-0.32-0.79c0-0.2,0.09-0.4,0.24-0.57L28,38.22l0.13-0.03
				c0.45-0.11,0.49-0.3,0.59-0.7c0.06-0.3,0.2-0.74,0.64-1.07c0.06-0.28,0.2-0.51,0.32-0.68c0.13-0.18,0.23-0.32,0.23-0.46v-0.04
				l-0.02-0.22c0,0,0.1-0.09,0.12-0.1c0-0.01-0.02-0.02-0.02-0.02c-0.08-0.12-0.22-0.31-0.22-0.53c0,0,0.02-0.15,0.02-0.16
				c0,0,0,0,0,0.01l0.04-0.63c0-0.89-0.27-1.79-0.84-2.78c-0.15-0.19-0.25-0.36-0.25-0.54l0.02-0.11c0.07-0.36,0.41-0.53,0.71-0.67
				c0.09-0.06,0.29-0.15,0.32-0.2c0.01-0.03,0.04-0.18,0.04-0.18l0.2-0.1c0.58-0.29,0.82-0.72,0.82-1.47l-0.2-2.2c0,0,0-0.03,0-0.06
				c-0.32-0.33-0.37-0.72-0.37-0.99v-0.44c0-0.29-0.03-0.4-0.19-0.5l-0.19-0.12l-0.12-2.54l0.01-0.08l0.02-0.03
				c0.11-0.3,0.3-0.57,0.49-0.84c0.24-0.34,0.46-0.66,0.46-0.91c0-0.12-0.06-0.23-0.16-0.35l-0.01-0.04l-0.05-0.07l-0.01-0.05
				c-0.09-0.37-0.24-0.48-0.43-0.52l-0.58-0.15l0.31-0.47l0.06-0.13c0-0.09-0.09-0.22-0.2-0.38c-0.14-0.19-0.31-0.43-0.31-0.72
				c0,0,0.03-0.16,0.03-0.17c0.05-0.17,0.17-0.34,0.37-0.49c0-0.15,0-1.2,0-1.2l0.26-0.11c0.75-0.3,0.77-0.77,0.78-1.44
				c0.04-0.73,0.06-1.65,1.25-2.12c0.21-0.14,0.35-0.32,0.51-0.52c0.22-0.28,0.47-0.59,0.91-0.8l0.16-0.06l0.14,0.03
				c0.5,0.11,1.02,0.01,1.5-0.08c0.65-0.12,1.41-0.26,2.09,0.13l0.16,0.09c0,0,0.03,0.14,0.05,0.16c0.03,0.01,0.29,0.06,0.31,0.06
				c0,0,0.52,0.12,0.5,0.12l0.24,0.04l0.06,0.28c0.02,0.1,0.25,0.23,0.43,0.33c0.24,0.12,0.48,0.29,0.65,0.53
				c0.75,0.45,1.14,1.16,1.14,2.01c0,0.29-0.04,0.6-0.14,0.91l-0.06,0.22l-0.25,0.07c-0.24,0.05-0.3,0.17-0.47,0.44
				c0,0-0.11,0.18-0.17,0.26c0.02,0.17,0.1,0.37,0.2,0.58c0.14,0.3,0.28,0.63,0.28,0.99c0,0.35-0.17,0.65-0.49,0.91
				c0,0.14,0,6.04,0,6.04l-0.07,0.11c-0.1,0.13-0.17,0.31-0.24,0.51c-0.1,0.3-0.26,0.74-0.71,1.04c-0.02,0.2-0.11,0.93-0.11,0.94
				l-0.13,1.01c0,0.35,0.08,0.63,0.24,0.93l0.08,0.43c0,0.58-0.42,0.99-0.79,1.36c-0.29,0.29-0.49,0.51-0.49,0.7
				c0,0.11,0.08,0.25,0.21,0.39l0.21,0.15c0,0-0.2,0.69-0.21,0.7c-0.07,0.19-0.12,0.36-0.12,0.52l0.02,0.15l0.06,0.34l-0.36,0.12
				c-0.28,0.09-0.36,0.26-0.53,0.59c0,0-0.12,0.23-0.16,0.31c0,0.08,0.01,0.31,0.01,0.31c0,0.72-0.17,1.39-0.34,2.04
				c-0.16,0.62-0.32,1.22-0.32,1.85l0.02,0.37l0.01,0.14c0,0-0.33,0.5-0.39,0.58c0,0.08-0.01,0.62-0.01,0.62l0.06,2.06
				c0,0.73-0.06,1.67-0.55,2.48c-0.05,0.16-0.08,0.35-0.08,0.62l0.02,0.69c0,0.48-0.08,1.08-0.55,1.57c0,0.08-0.02,0.44-0.02,0.44
				l0.06,1.63c0,0.83-0.16,1.43-0.51,1.93c0.02,0.11,0.04,0.35,0.04,0.35l-0.1,0.88l-0.07,0.73c0,0.22,0.03,0.4,0.09,0.57l0.11,0.25
				l-0.2,0.18c-0.28,0.26-0.39,0.61-0.39,1.15l0.06,1.32c0,0-0.01,0.13-0.01,0.24c0.64,0.38,1.38,0.69,2.41,0.56
				c0.42-0.26,0.9-0.37,1.36-0.44c0.52-0.09,0.96-0.15,1.26-0.45l0.02-0.03l0.06-0.04L38.8,56c0.45-0.24,0.96-0.24,1.45-0.24
				c0.48-0.01,0.93-0.01,1.17-0.24l0.08-0.09l0.13-0.02c0.66-0.16,1.14-0.43,1.16-0.65l0.01-0.23l0.22-0.11
				c0.2-0.1,0.27-0.22,0.27-0.55l-0.01-0.49c0-0.31,0.06-0.76,0.52-1.1c0-0.04,0-0.09,0-0.09l-0.04-0.8c0-0.42,0.14-0.74,0.4-1
				c0-0.1,0.26-5.1,0.26-5.1l0.25-0.1c0.07-0.03,0.07-0.05,0.15-0.21c0,0,0.04-0.08,0.06-0.14c-0.01-0.09-0.02-0.25-0.02-0.25
				l0.08-0.67L45,43.36c0,0-0.05-0.27-0.05-0.32c0-0.01,0-0.01,0,0l-0.13-0.41c0-0.35,0.31-0.57,0.47-0.68c0,0,0.05-0.05,0.1-0.09
				l0,0c0,0-0.08-1.24-0.08-1.26l-0.07-1.51c0-0.96,0.13-2.36,1.17-3.45c0-0.01,0.08-0.3,0.08-0.3c0-0.28-0.2-0.57-0.41-0.87
				c-0.22-0.33-0.5-0.73-0.5-1.19c0-0.38,0.2-0.74,0.57-1.07l0.03-0.03l0.06-0.04l0.05-0.02c0.06-0.03,0.1-0.06,0.15-0.3
				c0.06-0.26,0.2-0.74,0.85-0.82c0.02-0.08,0.06-0.17,0.06-0.17c0.21-0.33,0.63-0.41,1-0.47c0.16-0.03,0.38-0.07,0.46-0.12
				l0.02-0.02l0.06-0.03l0.05-0.01c0.51-0.15,0.9,0,1.17,0.11c0.21,0.09,0.35,0.14,0.55,0.08l0.68-0.2l-0.06,0.33l-0.05,0.32
				l-0.02,0.12c0,0.15,0.06,0.27,0.28,0.39l0.04,0.01l0.08,0.06l0.02,0.04c0.31,0.36,0.35,0.72,0.35,1.03l-0.01,0.37
				c0,0.21,0.02,0.37,0.16,0.52l0.12,0.11l-0.16,1.91l-0.12,1.77c0,0.48,0.04,0.93,0.12,1.37l0.06,0.31l-0.29,0.13
				c-0.13,0.06-0.13,0.08-0.13,0.1l0.05,0.24l0.09,0.45c0,0.18-0.1,0.35-0.23,0.5c0.02,0.09,0.09,0.31,0.09,0.31
				c0,0.35-0.16,0.64-0.29,0.89c-0.1,0.21-0.16,0.33-0.2,0.42c0,0.09,0,3.72,0,3.72l-0.26,0.11c0,0-0.09,0.05-0.1,0.05
				c0,0.02,0.08,0.25,0.08,0.26c0.07,0.16,0.16,0.35,0.16,0.57v0.07l-0.02,0.09l-0.05,0.08c-0.15,0.21-0.18,0.48-0.23,0.79
				c-0.06,0.37-0.13,0.87-0.51,1.29c-0.04,0.12-0.07,0.27-0.07,0.48l0.02,0.75c0,0.34-0.06,0.82-0.49,1.22
				c0.02,0.14,0.06,0.46,0.06,0.46c0,0.57-0.2,1.05-0.39,1.52c-0.16,0.42-0.33,0.81-0.33,1.22l0.02,0.13v0.04L49.1,54.8l-0.02,0.04
				c-0.12,0.32-0.37,0.58-0.59,0.81c-0.28,0.28-0.46,0.48-0.46,0.69l0.06,0.23l0.19,0.4l-0.45,0.15c-0.3,0.1-0.57,0.28-0.81,0.45
				c-0.44,0.3-1,0.67-1.86,0.61c-0.04,0.05-0.08,0.11-0.07,0.09c-0.14,0.21-0.38,0.62-0.97,0.63c-0.44,0.41-1.06,0.53-1.5,0.59
				c-0.68,0.11-0.89,0.18-0.95,0.45l-0.05,0.2l-0.19,0.09c-0.67,0.33-1.44,0.42-2.18,0.5c-0.7,0.08-1.37,0.16-1.89,0.42l-0.09,0.04
				c0,0-1.27,0.01-1.28,0.01c-0.95-0.04-1.78-0.06-2.18,0.53l-0.12,0.18l-0.22,0.01c-0.33,0.02-0.37,0.14-0.47,0.55
				c0,0-0.07,0.31-0.1,0.39c0.01,0.05,0.01,0.17,0.01,0.17c0,0.4-0.1,0.87-0.25,1.26c0.14,0.57,0.3,1.25,0.3,1.95
				c0,0.73-0.2,1.36-0.55,1.91c0,0.05,0,0.22,0,0.33c0,0.04,0,0.08,0,0.08l0.02,0.33c0,0.38-0.15,0.67-0.39,0.89
				c-0.02,0.12-0.26,5.08-0.26,5.08l-0.12,0.11c-0.1,0.08-0.13,0.21-0.13,0.45l0.02,0.43c0,0.24-0.03,0.51-0.2,0.8
				c-0.4,0.6-0.46,1.31-0.46,2l0.05,1.45c0,0.57-0.06,1.01-0.14,1.4l-0.07,0.23l-0.23,0.07c-0.2,0.06-0.22,0.1-0.27,0.32
				c-0.05,0.15-0.12,0.43-0.41,0.67c0,0.04,0,0.1,0,0.1l-0.08,0.79c-0.03,0.17-0.17,0.31-0.29,0.42c0,0-0.16,0.15-0.16,0.16
				c0,0.02,0,0.12,0,0.12l0.03,0.23l-0.19,0.15l-0.01,0.01l0.06,0.17l0.11,0.41l0.03,0.58c0,0.23-0.03,0.52-0.19,0.82L28.98,87
				c0,0-0.13-0.01-0.15-0.01c0.02,0.13,0.02,0.32,0.02,0.32c0,0.72-0.09,1.55-0.52,2.29c0,0.06,0,0.23,0,0.23V90
				c0,0.46-0.09,0.96-0.6,1.35c0.01,0.13,0.03,0.43,0.03,0.43c0,0.41-0.06,0.82-0.18,1.33l-0.05,0.17l-0.16,0.09
				c-0.16,0.09-0.19,0.18-0.25,0.48c-0.05,0.2-0.13,0.36-0.23,0.52c0,0.01,0.01,0.01,0.01,0.01l0.02,0.13c0,0.17-0.08,0.33-0.22,0.5
				c0,0.03-0.01,0.08-0.01,0.08l0,0c0.74,0.12,1.43,0.57,2.24,0.61c2.69,0.39,5.82-0.11,8.59,0.11c1.67,0.83,3.51-0.99,5.18-0.16
				c1.42-0.06,3.33,0.01,4.77-0.41c2.58,0.09,5.43,0.47,8.03,0.2c2.09,0.17,4.26,0.38,6.54,0.55c0.47-0.27,1.14-0.24,1.31-0.62
				c3.14-0.18,4.9-0.54,8.11-0.54c0.25,1.21,2.17,0.17,2.97,0.77c1.18,0.01,1.76,0.25,2.21-0.5c0.01,0,0.02,0,0.02-0.01
				c0-0.17-0.01-0.43-0.02-0.5c-0.33-0.24-0.53-0.57-0.53-1.01l0.11-0.72l0.09-0.52c0,0,0.23-0.17,0.33-0.24
				c-0.01-0.14-0.02-0.45-0.02-0.45l0.05-1.81c0-0.58-0.05-1.28-0.35-1.88c-0.17-0.31-0.25-0.62-0.25-0.96
				c0-0.42,0.14-0.83,0.25-1.19c0.1-0.31,0.18-0.61,0.18-0.88c0-0.26-0.08-0.47-0.26-0.68l-0.11-0.12l0.02-0.18
				c0-0.23-0.11-0.46-0.21-0.72c-0.14-0.3-0.29-0.64-0.29-1.08v-9.06L75.76,73c0.2-0.28,0.28-0.58,0.28-0.93
				c0-0.36-0.1-0.73-0.2-1.13c-0.12-0.45-0.24-0.92-0.24-1.4c0-0.37,0.06-0.71,0.22-1.04c0,0,0.27-0.57,0.29-0.59
				c0.12-0.2,0.2-0.35,0.2-0.46l-0.06-0.16l-0.12-0.16l0.07-0.19l0.04-0.28c0-0.45-0.34-0.93-0.67-1.4c0,0-0.07-0.09-0.11-0.15
				c-0.55-0.11-0.92-0.3-1.34-0.56c0,0-0.32-0.18-0.39-0.22c-0.48-0.11-1.09-0.08-1.64-0.06c-1.06,0.04-2.27,0.07-3.06-0.74
				c-0.71,0.01-1.16-0.31-1.52-0.57c-0.45-0.33-0.72-0.52-1.39-0.29l-0.2,0.06l-0.17-0.09c-0.81-0.4-1.19-0.83-1.64-1.34
				c0,0-0.11-0.12-0.16-0.16c-0.45-0.15-0.64-0.49-0.76-0.7c-0.12-0.24-0.18-0.31-0.31-0.34h-0.12c0,0-0.52-0.7-0.53-0.71
				c-0.2-0.33-0.33-0.56-0.71-0.69l-0.34-0.07c0,0,0-0.97,0-1.04v-0.36c0-0.67-0.13-1.1-0.81-1.4c-0.04,0-0.29,0-0.29,0v-0.2
				c0,0-0.01-0.5-0.01-0.58v-0.01l0.01-0.17v-0.01c-0.01-0.01-0.07-0.03-0.07-0.03l-0.17-0.05l-0.1-0.16
				c-0.15-0.28-0.22-0.56-0.22-0.87c0-0.41,0.13-0.8,0.25-1.15c0.12-0.3,0.2-0.57,0.2-0.81c0-0.14-0.03-0.27-0.1-0.39l-0.14-0.24
				c0,0,0.28-0.3,0.33-0.38c0-0.14,0.13-9.35,0.13-9.35l0.28-0.1c0.18-0.08,0.25-0.16,0.25-0.36c0,0-0.08-0.51-0.1-0.52
				c0,0-0.01-0.1-0.03-0.18c-0.23-0.16-0.53-0.4-0.53-0.75c0-0.14,0.05-0.35,0.3-0.53l0.02-0.02l0.06-0.03l0.04-0.01
				c0.34-0.12,0.34-0.23,0.34-0.31l-0.06-0.34l-0.08-0.51c0-0.35,0.2-0.62,0.48-0.83c-0.02-0.31-0.26-0.58-0.69-0.74l-0.17-0.06
				l-0.07-0.13c-0.14-0.25-0.21-0.5-0.21-0.74c0-0.58,0.39-1.03,0.7-1.37c0.26-0.3,0.49-0.55,0.49-0.84l-0.02-0.16l-0.06-0.2
				l0.14-0.16c0.72-0.87,2.06-0.77,3.01-0.62l0.33,0.06l0.03,0.31c0.02,0.15,0.13,0.24,0.49,0.43c0.35,0.19,0.89,0.49,0.89,1.13
				l-0.12,11.81c0.07,0.21,0.12,0.43,0.12,0.65l-0.07,0.72l-0.07,0.6c0,0.18,0.02,0.33,0.1,0.46l0.07,0.14l-0.2,0.55
				c-0.19,0.49-0.37,0.95-0.37,1.46c0,0,0.02,0.12,0.02,0.2c0.09,0.07,0.36,0.27,0.36,0.27l0.02,0.17c0.09,0.67,0.11,1.37,0.14,2.06
				c0.04,1.26,0.08,2.57,0.55,3.71c0.36,0.22,0.41,0.55,0.42,0.69l0.02,0.12c0,0,0,0,0.01,0.01c0.28,0.3,0.64,0.56,1,0.82
				c0.46,0.34,0.87,0.66,1.16,1.05c0.43,0.23,0.95,0.31,1.53,0.39c0.55,0.07,0.69,0.15,1.01,0.35c0,0,0.19,0.12,0.2,0.13
				c1.13,0.4,2.26-0.03,3.07-0.48C75.01,59.67,75,59.6,75,59.6c0-0.53,0.26-0.97,0.47-1.36c0.2-0.33,0.38-0.65,0.38-0.98
				c0,0-0.04-0.2-0.04-0.21l0,0c-0.16-0.5-0.26-1.04-0.26-1.69c0,0,0.1-1.39,0.1-1.4l0.08-1.29c0,0-0.04-0.43-0.05-0.52
				c-0.24-0.18-0.39-0.43-0.39-0.76l0.01-0.36l-0.01-0.1l-0.15-0.16l0.06-0.21l0.01-0.2c0-0.32-0.17-0.61-0.35-0.93
				c-0.21-0.37-0.45-0.79-0.45-1.3c0,0,0.01-0.11,0.02-0.17c-0.24-0.33-0.36-0.69-0.36-1.08c0-0.28,0.24-0.49,0.48-0.71
				c0.13-0.12,0.3-0.27,0.32-0.37c0.09-0.32,0.16-0.61,0.16-0.9l-0.06-0.4l-0.09-0.26l0.21-0.18c0.07-0.05,0.11-0.11,0.11-0.31
				l-0.02-0.45c0-0.35,0.12-0.61,0.33-0.82c-0.2-0.24-0.31-0.5-0.31-0.76c0-0.22,0.04-0.43,0.15-0.6c0.1-0.31,0.21-0.63,0.21-0.93
				c0-0.17-0.03-0.31-0.09-0.44l-0.06-0.14l0.03-0.06l0.01-0.06l0.01-0.06c0-0.13-0.06-0.32-0.12-0.5l-0.17-0.56l0.06-0.13
				l0.06-0.29c0-0.21-0.12-0.43-0.25-0.68c-0.16-0.28-0.33-0.59-0.33-0.96c0-0.2,0.06-0.4,0.16-0.58l0.02-0.03l0.05-0.06l0.02-0.02
				c0.24-0.22,0.27-0.52,0.32-0.88c0.04-0.34,0.11-0.8,0.43-1.19c0-0.07,0.04-0.43,0.04-0.43l-0.17-2.16c0-0.39,0.05-0.74,0.15-1.07
				l0.06-0.2l0.21-0.07c0.24-0.08,0.28-0.18,0.37-0.4c0.08-0.17,0.23-0.4,0.48-0.6c0-0.02,0.02-0.04,0.02-0.04
				c0-0.29-0.22-0.48-0.48-0.76c-0.24-0.22-0.47-0.45-0.63-0.77l-0.02-0.03l-0.02-0.05l-0.04-0.58l0.06-1.36
				c0-0.56-0.11-0.91-0.4-1.19l-0.2-0.19l0.12-0.25c0.05-0.13,0.08-0.26,0.08-0.4c0-0.49-0.36-0.93-0.51-1.1l-0.08-0.1l-0.02-0.12
				c-0.1-0.66-0.13-1.27-0.13-1.88c0-0.84,0.08-1.68,0.25-2.58l0.05-0.21l0.21-0.1c0.39-0.17,0.57-0.42,0.79-0.71
				c0.19-0.29,0.43-0.55,0.77-0.76c-0.01-0.03-0.01-0.06-0.01-0.06c0-0.56,0.48-0.94,0.81-1.23c0.31-0.24,0.51-0.42,0.51-0.59
				l-0.02-0.11l-0.03-0.11l0.02-0.1c0.09-0.4,0.46-0.59,0.72-0.7c0,0,0.11-0.06,0.17-0.1c-0.02-0.02-0.09-0.16-0.09-0.16l0.12-0.18
				c0.25-0.42,0.73-0.4,1.02-0.39c0,0,0.2-0.01,0.23-0.01c0.03-0.03,0.05-0.08,0.05-0.08l0.08-0.12l0.28,0.02
				c1.12,0.08,2.13,0.47,3.09,1.2l0.24,0.17l-0.05,0.14c0,0-0.04,0.13-0.04,0.12v0.01c0.02,0.06,0.25,0.22,0.33,0.28
				c0.24,0.16,0.52,0.35,0.64,0.62l0.05,0.08l-0.14,4.45l-0.19,0.12c-0.13,0.06-0.18,0.15-0.18,0.41l0.02,0.45
				c0,0.18-0.02,0.67-0.51,1.02c0,0.14,0,0.67,0,0.67v0.48c0,1.18-0.06,2.53-0.62,3.71c0,0.46-0.14,0.86-0.27,1.24
				c-0.12,0.35-0.22,0.68-0.22,1.06c0,0,0.02,0.94,0.02,0.94c0,1.02-0.08,2.01-0.15,2.99l-0.14,2.14l-0.19,0.11
				c0,0-0.03,0.02-0.04,0.03c0.01,0.02,0.04,0.16,0.04,0.16l0.1,0.44c0,0-0.04,0.14-0.07,0.26c0.2,0.23,0.3,0.47,0.3,0.71
				c0,0.28-0.08,0.53-0.16,0.76c-0.08,0.21-0.14,0.38-0.14,0.54c0,0.12,0.03,0.21,0.09,0.3l0.18,0.24l-0.19,0.23
				c-0.12,0.15-0.16,0.36-0.2,0.61c-0.04,0.28-0.12,0.69-0.45,1.04c0,0.14-0.12,15.37-0.12,15.37l-0.09,0.11
				c-0.22,0.28-0.3,0.64-0.3,1.18l0.04,1.26c0,0-0.01,0.24-0.02,0.34c0.16,0.18,0.24,0.39,0.24,0.6l-0.06,0.49l-0.06,0.3
				c0,0.06,0,0.12,0.16,0.21l0.29,0.15l-0.09,0.29l-0.02,0.13c0,0.09,0.02,0.17,0.07,0.23c0.06,0.08,0.17,0.12,0.3,0.14
				c0.45-0.06,0.81,0.08,1.07,0.18c0.3,0.12,0.45,0.17,0.6,0.09c0.56-0.4,1.24-0.51,1.88-0.62c0.74-0.13,1.36-0.23,1.76-0.69
				l0.12-0.15l0.2,0c0.17-0.01,0.4-0.17,0.63-0.46l0.16-0.21c0.14-0.23,0.34-0.48,0.62-0.71c-0.05-0.17-0.12-0.35-0.12-0.51
				c0-0.74,0.44-1.29,0.84-1.79c0.37-0.45,0.67-0.84,0.67-1.29c0-0.15-0.02-0.29-0.1-0.45l-0.08-0.21l0.16-0.19
				c0.27-0.33,0.41-0.7,0.41-1.18c0-0.35-0.08-0.72-0.14-1.11c-0.08-0.4-0.15-0.83-0.15-1.24c0-0.49,0.1-0.91,0.32-1.27
				c0.16-0.36,0.26-0.73,0.26-1.14c0-0.58-0.16-1.15-0.33-1.77c-0.18-0.63-0.36-1.27-0.36-1.94l0.03-0.47v-0.04l0.05-0.09v-0.04
				c0,0-0.1-0.31-0.1-0.31c-0.08-0.18-0.18-0.4-0.18-0.64c0,0,0.07-0.23,0.11-0.32c-0.09-0.75-0.12-1.37-0.12-1.94
				c0-1.71,0.37-3.06,1.1-4.14c0-0.11,0-0.34,0-0.34v-0.25c0-0.67,0.16-1.4,1.16-1.84c0.2-0.24,0.48-0.46,0.78-0.68l0.63-0.46
				l0.2,0.04c0.15,0.03,0.41,0.02,0.64-0.01c0.51-0.03,1.08-0.08,1.42,0.26c0.13,0.11,0.2,0.26,0.24,0.44
				c0.63,0.28,0.85,0.79,0.97,1.13c0.12,0.3,0.21,0.56,0.47,0.73l0.17,0.11l0.02,0.19c0.17,1.37,0.26,2.83,0.26,4.43
				c0,2.46-0.2,4.92-0.39,7.31l-0.24,3.43c0,0-0.28,0.2-0.37,0.28c-0.01,0.11-0.03,0.45-0.03,0.45l0.08,1.83
				c0,0.62-0.08,1.43-0.65,2.13c0,0.05,0.02,0.13,0.02,0.13c0,0.47-0.19,0.86-0.37,1.23c-0.16,0.3-0.29,0.59-0.29,0.89v0.16
				l0.06,0.25l-0.22,0.15c-0.47,0.32-0.58,0.78-0.7,1.32c-0.12,0.56-0.32,1.32-1.16,1.81c-0.12,0.4-0.56,0.53-0.76,0.58
				c-0.1,0.02-0.25,0.06-0.29,0.11c-0.53,0.5-1.08,0.95-1.97,1.1c-0.32,0.3-0.75,0.35-1.05,0.38c-0.16,0.01-0.32,0.02-0.45,0.07
				c-0.32,0.33-0.71,0.53-1.1,0.72c-0.33,0.17-0.66,0.33-0.85,0.55l-0.1,0.12l-0.17,0.03c-0.5,0.09-1.09,0.05-1.64,0
				c-1.14-0.09-1.83-0.11-2.12,0.49L83.33,65l-0.34-0.04c-0.85-0.11-1.33,0.35-1.86,0.88c-0.06,0.36-0.1,0.7-0.1,0.98
				c0,0.71,0.18,1.29,0.53,1.72l0.11,0.13l-0.02,0.16l-0.02,0.41l0.04,1.26c0,0.61-0.12,1.07-0.38,1.48
				c0.01,0.09,0.03,0.46,0.03,0.46l-0.16,2.12c0,0.32,0.04,0.59,0.11,0.84l0.06,0.16l-0.09,0.15c-0.07,0.12-0.11,0.23-0.11,0.35
				c0,0.2,0.1,0.4,0.2,0.65c0.12,0.29,0.27,0.61,0.27,0.98c0,0.17-0.06,0.36-0.15,0.55c0.13,0.21,0.21,0.43,0.21,0.68
				c0,0-0.06,0.58-0.06,0.59l0,0c-0.02,0.26-0.04,0.41-0.06,0.51l0.01-0.01c0.1,1.93,0.12,3.85,0.12,5.63v2.7
				c0,1.73,0.02,3.57,0.13,5.42c0.15,0.27,0.27,0.55,0.37,0.84c0.13,0,0.24,0.05,0.27,0.25c0.76,0.5,1.73,1.15,7.18,0.06
				c1.5,0.24,2.82,0.54,4.23,0.6c1.46-0.42,2.91-0.59,4.37-0.66c1.28-0.64,2.9-0.73,4.12-1.56c0.24-0.84,1.28-0.95,1.92-1.43
				c0.37-0.47-0.07-0.97-0.1-1.45c1.97,0,0.7-2.08,1.67-2.87c-0.21-2.7,0.64-4.75,0.64-7.37c0.71-1.72,0.08-3.78,0.61-5.42
				c-0.75-2.1,0.96-3.84,0.22-5.78c-1.16-1.18-0.44-2.7-0.34-3.98c-0.79-1.37,0.58-2.58,0.2-4.09c0.95-0.96-0.56-1.96-0.24-3.15
				c-0.26-0.43,0.04-1.06-0.38-1.45c0.23-1.66-1.09-3.09-0.2-4.7C107.1,50.52,107.58,49.35,107.57,47.98z"/>
		</g>
	</g>
</g>
</svg>
